<svg width="1783" height="143" viewBox="0 0 1783 143" fill="none" xmlns="http://www.w3.org/2000/svg">
<circle cx="1.5" cy="81.5" r="1.5" fill="#E5E6E8"/>
<circle cx="21.5" cy="81.5" r="1.5" fill="#E5E6E8"/>
<circle cx="41.5" cy="81.5" r="1.5" fill="#E5E6E8"/>
<circle cx="21.5" cy="101.5" r="1.5" fill="#E5E6E8"/>
<circle cx="1.5" cy="101.5" r="1.5" fill="#E5E6E8"/>
<circle cx="41.5" cy="101.5" r="1.5" fill="#E5E6E8"/>
<circle cx="41.5" cy="121.5" r="1.5" fill="#E5E6E8"/>
<circle cx="61.5" cy="81.5" r="1.5" fill="#E5E6E8"/>
<circle cx="81.5" cy="81.5" r="1.5" fill="#E5E6E8"/>
<circle cx="61.5" cy="101.5" r="1.5" fill="#E5E6E8"/>
<circle cx="81.5" cy="101.5" r="1.5" fill="#E5E6E8"/>
<circle cx="61.5" cy="121.5" r="1.5" fill="#E5E6E8"/>
<circle cx="81.5" cy="121.5" r="1.5" fill="#E5E6E8"/>
<circle cx="81.5" cy="141.5" r="1.5" fill="#E5E6E8"/>
<circle cx="101.5" cy="81.5" r="1.5" fill="#E5E6E8"/>
<circle cx="121.5" cy="81.5" r="1.5" fill="#E5E6E8"/>
<circle cx="101.5" cy="101.5" r="1.5" fill="#E5E6E8"/>
<circle cx="121.5" cy="101.5" r="1.5" fill="#E5E6E8"/>
<circle cx="101.5" cy="121.5" r="1.5" fill="#E5E6E8"/>
<circle cx="121.5" cy="121.5" r="1.5" fill="#E5E6E8"/>
<circle cx="101.5" cy="141.5" r="1.5" fill="#E5E6E8"/>
<circle cx="121.5" cy="141.5" r="1.5" fill="#E5E6E8"/>
<circle cx="141.5" cy="81.5" r="1.5" fill="#E5E6E8"/>
<circle cx="161.5" cy="81.5" r="1.5" fill="#E5E6E8"/>
<circle cx="141.5" cy="101.5" r="1.5" fill="#E5E6E8"/>
<circle cx="161.5" cy="101.5" r="1.5" fill="#E5E6E8"/>
<circle cx="141.5" cy="121.5" r="1.5" fill="#E5E6E8"/>
<circle cx="161.5" cy="121.5" r="1.5" fill="#E5E6E8"/>
<circle cx="141.5" cy="141.5" r="1.5" fill="#E5E6E8"/>
<circle cx="161.5" cy="141.5" r="1.5" fill="#E5E6E8"/>
<circle cx="181.5" cy="81.5" r="1.5" fill="#E5E6E8"/>
<circle cx="201.5" cy="81.5" r="1.5" fill="#E5E6E8"/>
<circle cx="181.5" cy="101.5" r="1.5" fill="#E5E6E8"/>
<circle cx="201.5" cy="101.5" r="1.5" fill="#E5E6E8"/>
<circle cx="181.5" cy="121.5" r="1.5" fill="#E5E6E8"/>
<circle cx="201.5" cy="121.5" r="1.5" fill="#E5E6E8"/>
<circle cx="181.5" cy="141.5" r="1.5" fill="#E5E6E8"/>
<circle cx="201.5" cy="141.5" r="1.5" fill="#E5E6E8"/>
<circle cx="221.5" cy="81.5" r="1.5" fill="#E5E6E8"/>
<circle cx="241.5" cy="81.5" r="1.5" fill="#E5E6E8"/>
<circle cx="221.5" cy="101.5" r="1.5" fill="#E5E6E8"/>
<circle cx="241.5" cy="101.5" r="1.5" fill="#E5E6E8"/>
<circle cx="221.5" cy="121.5" r="1.5" fill="#E5E6E8"/>
<circle cx="241.5" cy="121.5" r="1.5" fill="#E5E6E8"/>
<circle cx="221.5" cy="141.5" r="1.5" fill="#E5E6E8"/>
<circle cx="241.5" cy="141.5" r="1.5" fill="#E5E6E8"/>
<circle cx="261.5" cy="81.5" r="1.5" fill="#E5E6E8"/>
<circle cx="281.5" cy="81.5" r="1.5" fill="#E5E6E8"/>
<circle cx="261.5" cy="101.5" r="1.5" fill="#E5E6E8"/>
<circle cx="281.5" cy="101.5" r="1.5" fill="#E5E6E8"/>
<circle cx="261.5" cy="121.5" r="1.5" fill="#E5E6E8"/>
<circle cx="281.5" cy="121.5" r="1.5" fill="#E5E6E8"/>
<circle cx="261.5" cy="141.5" r="1.5" fill="#E5E6E8"/>
<circle cx="281.5" cy="141.5" r="1.5" fill="#E5E6E8"/>
<circle cx="301.5" cy="81.5" r="1.5" fill="#E5E6E8"/>
<circle cx="321.5" cy="81.5" r="1.5" fill="#E5E6E8"/>
<circle cx="301.5" cy="101.5" r="1.5" fill="#E5E6E8"/>
<circle cx="321.5" cy="101.5" r="1.5" fill="#E5E6E8"/>
<circle cx="301.5" cy="121.5" r="1.5" fill="#E5E6E8"/>
<circle cx="321.5" cy="121.5" r="1.5" fill="#E5E6E8"/>
<circle cx="301.5" cy="141.5" r="1.5" fill="#E5E6E8"/>
<circle cx="321.5" cy="141.5" r="1.5" fill="#E5E6E8"/>
<circle cx="341.5" cy="81.5" r="1.5" fill="#E5E6E8"/>
<circle cx="361.5" cy="81.5" r="1.5" fill="#E5E6E8"/>
<circle cx="341.5" cy="101.5" r="1.5" fill="#E5E6E8"/>
<circle cx="361.5" cy="101.5" r="1.5" fill="#E5E6E8"/>
<circle cx="341.5" cy="121.5" r="1.5" fill="#E5E6E8"/>
<circle cx="361.5" cy="121.5" r="1.5" fill="#E5E6E8"/>
<circle cx="341.5" cy="141.5" r="1.5" fill="#E5E6E8"/>
<circle cx="361.5" cy="141.5" r="1.5" fill="#E5E6E8"/>
<circle cx="381.5" cy="81.5" r="1.5" fill="#E5E6E8"/>
<circle cx="401.5" cy="81.5" r="1.5" fill="#E5E6E8"/>
<circle cx="381.5" cy="101.5" r="1.5" fill="#E5E6E8"/>
<circle cx="401.5" cy="101.5" r="1.5" fill="#E5E6E8"/>
<circle cx="381.5" cy="121.5" r="1.5" fill="#E5E6E8"/>
<circle cx="401.5" cy="121.5" r="1.5" fill="#E5E6E8"/>
<circle cx="381.5" cy="141.5" r="1.5" fill="#E5E6E8"/>
<circle cx="401.5" cy="141.5" r="1.5" fill="#E5E6E8"/>
<circle cx="421.5" cy="81.5" r="1.5" fill="#E5E6E8"/>
<circle cx="441.5" cy="81.5" r="1.5" fill="#E5E6E8"/>
<circle cx="421.5" cy="101.5" r="1.5" fill="#E5E6E8"/>
<circle cx="441.5" cy="101.5" r="1.5" fill="#E5E6E8"/>
<circle cx="421.5" cy="121.5" r="1.5" fill="#E5E6E8"/>
<circle cx="441.5" cy="121.5" r="1.5" fill="#E5E6E8"/>
<circle cx="421.5" cy="141.5" r="1.5" fill="#E5E6E8"/>
<circle cx="441.5" cy="141.5" r="1.5" fill="#E5E6E8"/>
<circle cx="461.5" cy="81.5" r="1.5" fill="#E5E6E8"/>
<circle cx="481.5" cy="81.5" r="1.5" fill="#E5E6E8"/>
<circle cx="461.5" cy="101.5" r="1.5" fill="#E5E6E8"/>
<circle cx="481.5" cy="101.5" r="1.5" fill="#E5E6E8"/>
<circle cx="461.5" cy="121.5" r="1.5" fill="#E5E6E8"/>
<circle cx="481.5" cy="121.5" r="1.5" fill="#E5E6E8"/>
<circle cx="461.5" cy="141.5" r="1.5" fill="#E5E6E8"/>
<circle cx="481.5" cy="141.5" r="1.5" fill="#E5E6E8"/>
<circle cx="501.5" cy="81.5" r="1.5" fill="#E5E6E8"/>
<circle cx="521.5" cy="81.5" r="1.5" fill="#E5E6E8"/>
<circle cx="501.5" cy="101.5" r="1.5" fill="#E5E6E8"/>
<circle cx="521.5" cy="101.5" r="1.5" fill="#E5E6E8"/>
<circle cx="501.5" cy="121.5" r="1.5" fill="#E5E6E8"/>
<circle cx="521.5" cy="121.5" r="1.5" fill="#E5E6E8"/>
<circle cx="501.5" cy="141.5" r="1.5" fill="#E5E6E8"/>
<circle cx="521.5" cy="141.5" r="1.5" fill="#E5E6E8"/>
<circle cx="541.5" cy="81.5" r="1.5" fill="#E5E6E8"/>
<circle cx="561.5" cy="81.5" r="1.5" fill="#E5E6E8"/>
<circle cx="541.5" cy="101.5" r="1.5" fill="#E5E6E8"/>
<circle cx="561.5" cy="101.5" r="1.5" fill="#E5E6E8"/>
<circle cx="541.5" cy="121.5" r="1.5" fill="#E5E6E8"/>
<circle cx="561.5" cy="121.5" r="1.5" fill="#E5E6E8"/>
<circle cx="541.5" cy="141.5" r="1.5" fill="#E5E6E8"/>
<circle cx="561.5" cy="141.5" r="1.5" fill="#E5E6E8"/>
<circle cx="581.5" cy="81.5" r="1.5" fill="#E5E6E8"/>
<circle cx="601.5" cy="81.5" r="1.5" fill="#E5E6E8"/>
<circle cx="581.5" cy="101.5" r="1.5" fill="#E5E6E8"/>
<circle cx="601.5" cy="101.5" r="1.5" fill="#E5E6E8"/>
<circle cx="581.5" cy="121.5" r="1.5" fill="#E5E6E8"/>
<circle cx="601.5" cy="121.5" r="1.5" fill="#E5E6E8"/>
<circle cx="581.5" cy="141.5" r="1.5" fill="#E5E6E8"/>
<circle cx="601.5" cy="141.5" r="1.5" fill="#E5E6E8"/>
<circle cx="621.5" cy="81.5" r="1.5" fill="#E5E6E8"/>
<circle cx="641.5" cy="81.5" r="1.5" fill="#E5E6E8"/>
<circle cx="621.5" cy="101.5" r="1.5" fill="#E5E6E8"/>
<circle cx="641.5" cy="101.5" r="1.5" fill="#E5E6E8"/>
<circle cx="621.5" cy="121.5" r="1.5" fill="#E5E6E8"/>
<circle cx="641.5" cy="121.5" r="1.5" fill="#E5E6E8"/>
<circle cx="621.5" cy="141.5" r="1.5" fill="#E5E6E8"/>
<circle cx="641.5" cy="141.5" r="1.5" fill="#E5E6E8"/>
<circle cx="661.5" cy="81.5" r="1.5" fill="#E5E6E8"/>
<circle cx="681.5" cy="81.5" r="1.5" fill="#E5E6E8"/>
<circle cx="661.5" cy="101.5" r="1.5" fill="#E5E6E8"/>
<circle cx="681.5" cy="101.5" r="1.5" fill="#E5E6E8"/>
<circle cx="661.5" cy="121.5" r="1.5" fill="#E5E6E8"/>
<circle cx="681.5" cy="121.5" r="1.5" fill="#E5E6E8"/>
<circle cx="661.5" cy="141.5" r="1.5" fill="#E5E6E8"/>
<circle cx="681.5" cy="141.5" r="1.5" fill="#E5E6E8"/>
<circle cx="701.5" cy="81.5" r="1.5" fill="#E5E6E8"/>
<circle cx="721.5" cy="81.5" r="1.5" fill="#E5E6E8"/>
<circle cx="701.5" cy="101.5" r="1.5" fill="#E5E6E8"/>
<circle cx="721.5" cy="101.5" r="1.5" fill="#E5E6E8"/>
<circle cx="701.5" cy="121.5" r="1.5" fill="#E5E6E8"/>
<circle cx="721.5" cy="121.5" r="1.5" fill="#E5E6E8"/>
<circle cx="701.5" cy="141.5" r="1.5" fill="#E5E6E8"/>
<circle cx="721.5" cy="141.5" r="1.5" fill="#E5E6E8"/>
<circle cx="741.5" cy="81.5" r="1.5" fill="#E5E6E8"/>
<circle cx="761.5" cy="81.5" r="1.5" fill="#E5E6E8"/>
<circle cx="741.5" cy="101.5" r="1.5" fill="#E5E6E8"/>
<circle cx="761.5" cy="101.5" r="1.5" fill="#E5E6E8"/>
<circle cx="741.5" cy="121.5" r="1.5" fill="#E5E6E8"/>
<circle cx="761.5" cy="121.5" r="1.5" fill="#E5E6E8"/>
<circle cx="741.5" cy="141.5" r="1.5" fill="#E5E6E8"/>
<circle cx="761.5" cy="141.5" r="1.5" fill="#E5E6E8"/>
<circle cx="781.5" cy="81.5" r="1.5" fill="#E5E6E8"/>
<circle cx="801.5" cy="81.5" r="1.5" fill="#E5E6E8"/>
<circle cx="781.5" cy="101.5" r="1.5" fill="#E5E6E8"/>
<circle cx="801.5" cy="101.5" r="1.5" fill="#E5E6E8"/>
<circle cx="781.5" cy="121.5" r="1.5" fill="#E5E6E8"/>
<circle cx="801.5" cy="121.5" r="1.5" fill="#E5E6E8"/>
<circle cx="781.5" cy="141.5" r="1.5" fill="#E5E6E8"/>
<circle cx="801.5" cy="141.5" r="1.5" fill="#E5E6E8"/>
<circle cx="821.5" cy="81.5" r="1.5" fill="#E5E6E8"/>
<circle cx="841.5" cy="81.5" r="1.5" fill="#E5E6E8"/>
<circle cx="821.5" cy="101.5" r="1.5" fill="#E5E6E8"/>
<circle cx="841.5" cy="101.5" r="1.5" fill="#E5E6E8"/>
<circle cx="821.5" cy="121.5" r="1.5" fill="#E5E6E8"/>
<circle cx="841.5" cy="121.5" r="1.5" fill="#E5E6E8"/>
<circle cx="821.5" cy="141.5" r="1.5" fill="#E5E6E8"/>
<circle cx="841.5" cy="141.5" r="1.5" fill="#E5E6E8"/>
<circle cx="861.5" cy="81.5" r="1.5" fill="#E5E6E8"/>
<circle cx="881.5" cy="81.5" r="1.5" fill="#E5E6E8"/>
<circle cx="861.5" cy="101.5" r="1.5" fill="#E5E6E8"/>
<circle cx="881.5" cy="101.5" r="1.5" fill="#E5E6E8"/>
<circle cx="861.5" cy="121.5" r="1.5" fill="#E5E6E8"/>
<circle cx="881.5" cy="121.5" r="1.5" fill="#E5E6E8"/>
<circle cx="861.5" cy="141.5" r="1.5" fill="#E5E6E8"/>
<circle cx="881.5" cy="141.5" r="1.5" fill="#E5E6E8"/>
<circle cx="901.5" cy="81.5" r="1.5" fill="#E5E6E8"/>
<circle cx="921.5" cy="81.5" r="1.5" fill="#E5E6E8"/>
<circle cx="901.5" cy="101.5" r="1.5" fill="#E5E6E8"/>
<circle cx="921.5" cy="101.5" r="1.5" fill="#E5E6E8"/>
<circle cx="901.5" cy="121.5" r="1.5" fill="#E5E6E8"/>
<circle cx="921.5" cy="121.5" r="1.5" fill="#E5E6E8"/>
<circle cx="901.5" cy="141.5" r="1.5" fill="#E5E6E8"/>
<circle cx="921.5" cy="141.5" r="1.5" fill="#E5E6E8"/>
<circle cx="941.5" cy="81.5" r="1.5" fill="#E5E6E8"/>
<circle cx="961.5" cy="81.5" r="1.5" fill="#E5E6E8"/>
<circle cx="941.5" cy="101.5" r="1.5" fill="#E5E6E8"/>
<circle cx="961.5" cy="101.5" r="1.5" fill="#E5E6E8"/>
<circle cx="941.5" cy="121.5" r="1.5" fill="#E5E6E8"/>
<circle cx="961.5" cy="121.5" r="1.5" fill="#E5E6E8"/>
<circle cx="941.5" cy="141.5" r="1.5" fill="#E5E6E8"/>
<circle cx="961.5" cy="141.5" r="1.5" fill="#E5E6E8"/>
<circle cx="981.5" cy="81.5" r="1.5" fill="#E5E6E8"/>
<circle cx="1001.5" cy="81.5" r="1.5" fill="#E5E6E8"/>
<circle cx="981.5" cy="101.5" r="1.5" fill="#E5E6E8"/>
<circle cx="1001.5" cy="101.5" r="1.5" fill="#E5E6E8"/>
<circle cx="981.5" cy="121.5" r="1.5" fill="#E5E6E8"/>
<circle cx="1001.5" cy="121.5" r="1.5" fill="#E5E6E8"/>
<circle cx="1001.5" cy="141.5" r="1.5" fill="#E5E6E8"/>
<circle cx="981.5" cy="141.5" r="1.5" fill="#E5E6E8"/>
<circle cx="1021.5" cy="81.5" r="1.5" fill="#E5E6E8"/>
<circle cx="1041.5" cy="81.5" r="1.5" fill="#E5E6E8"/>
<circle cx="1041.5" cy="101.5" r="1.5" fill="#E5E6E8"/>
<circle cx="1041.5" cy="121.5" r="1.5" fill="#E5E6E8"/>
<circle cx="1041.5" cy="141.5" r="1.5" fill="#E5E6E8"/>
<circle cx="1021.5" cy="101.5" r="1.5" fill="#E5E6E8"/>
<circle cx="1021.5" cy="121.5" r="1.5" fill="#E5E6E8"/>
<circle cx="1021.5" cy="141.5" r="1.5" fill="#E5E6E8"/>
<circle cx="1061.5" cy="81.5" r="1.5" fill="#E5E6E8"/>
<circle cx="1081.5" cy="81.5" r="1.5" fill="#E5E6E8"/>
<circle cx="1101.5" cy="81.5" r="1.5" fill="#E5E6E8"/>
<circle cx="1081.5" cy="101.5" r="1.5" fill="#E5E6E8"/>
<circle cx="1081.5" cy="121.5" r="1.5" fill="#E5E6E8"/>
<circle cx="1081.5" cy="141.5" r="1.5" fill="#E5E6E8"/>
<circle cx="1061.5" cy="101.5" r="1.5" fill="#E5E6E8"/>
<circle cx="1061.5" cy="121.5" r="1.5" fill="#E5E6E8"/>
<circle cx="1061.5" cy="141.5" r="1.5" fill="#E5E6E8"/>
<circle cx="1101.5" cy="101.5" r="1.5" fill="#E5E6E8"/>
<circle cx="1101.5" cy="121.5" r="1.5" fill="#E5E6E8"/>
<circle cx="1101.5" cy="141.5" r="1.5" fill="#E5E6E8"/>
<circle cx="1121.5" cy="81.5" r="1.5" fill="#E5E6E8"/>
<circle cx="1141.5" cy="81.5" r="1.5" fill="#E5E6E8"/>
<circle cx="1121.5" cy="101.5" r="1.5" fill="#E5E6E8"/>
<circle cx="1141.5" cy="101.5" r="1.5" fill="#E5E6E8"/>
<circle cx="1121.5" cy="121.5" r="1.5" fill="#E5E6E8"/>
<circle cx="1141.5" cy="121.5" r="1.5" fill="#E5E6E8"/>
<circle cx="1121.5" cy="141.5" r="1.5" fill="#E5E6E8"/>
<circle cx="1141.5" cy="141.5" r="1.5" fill="#E5E6E8"/>
<circle cx="1161.5" cy="81.5" r="1.5" fill="#E5E6E8"/>
<circle cx="1181.5" cy="81.5" r="1.5" fill="#E5E6E8"/>
<circle cx="1161.5" cy="101.5" r="1.5" fill="#E5E6E8"/>
<circle cx="1181.5" cy="101.5" r="1.5" fill="#E5E6E8"/>
<circle cx="1161.5" cy="121.5" r="1.5" fill="#E5E6E8"/>
<circle cx="1181.5" cy="121.5" r="1.5" fill="#E5E6E8"/>
<circle cx="1161.5" cy="141.5" r="1.5" fill="#E5E6E8"/>
<circle cx="1181.5" cy="141.5" r="1.5" fill="#E5E6E8"/>
<circle cx="1201.5" cy="81.5" r="1.5" fill="#E5E6E8"/>
<circle cx="1221.5" cy="81.5" r="1.5" fill="#E5E6E8"/>
<circle cx="1201.5" cy="101.5" r="1.5" fill="#E5E6E8"/>
<circle cx="1221.5" cy="101.5" r="1.5" fill="#E5E6E8"/>
<circle cx="1201.5" cy="121.5" r="1.5" fill="#E5E6E8"/>
<circle cx="1221.5" cy="121.5" r="1.5" fill="#E5E6E8"/>
<circle cx="1201.5" cy="141.5" r="1.5" fill="#E5E6E8"/>
<circle cx="1221.5" cy="141.5" r="1.5" fill="#E5E6E8"/>
<circle cx="1241.5" cy="81.5" r="1.5" fill="#E5E6E8"/>
<circle cx="1261.5" cy="81.5" r="1.5" fill="#E5E6E8"/>
<circle cx="1241.5" cy="101.5" r="1.5" fill="#E5E6E8"/>
<circle cx="1261.5" cy="101.5" r="1.5" fill="#E5E6E8"/>
<circle cx="1241.5" cy="121.5" r="1.5" fill="#E5E6E8"/>
<circle cx="1261.5" cy="121.5" r="1.5" fill="#E5E6E8"/>
<circle cx="1241.5" cy="141.5" r="1.5" fill="#E5E6E8"/>
<circle cx="1261.5" cy="141.5" r="1.5" fill="#E5E6E8"/>
<circle cx="1281.5" cy="81.5" r="1.5" fill="#E5E6E8"/>
<circle cx="1301.5" cy="81.5" r="1.5" fill="#E5E6E8"/>
<circle cx="1281.5" cy="101.5" r="1.5" fill="#E5E6E8"/>
<circle cx="1301.5" cy="101.5" r="1.5" fill="#E5E6E8"/>
<circle cx="1281.5" cy="121.5" r="1.5" fill="#E5E6E8"/>
<circle cx="1301.5" cy="121.5" r="1.5" fill="#E5E6E8"/>
<circle cx="1281.5" cy="141.5" r="1.5" fill="#E5E6E8"/>
<circle cx="1301.5" cy="141.5" r="1.5" fill="#E5E6E8"/>
<circle cx="1321.5" cy="81.5" r="1.5" fill="#E5E6E8"/>
<circle cx="1341.5" cy="81.5" r="1.5" fill="#E5E6E8"/>
<circle cx="1321.5" cy="101.5" r="1.5" fill="#E5E6E8"/>
<circle cx="1341.5" cy="101.5" r="1.5" fill="#E5E6E8"/>
<circle cx="1321.5" cy="121.5" r="1.5" fill="#E5E6E8"/>
<circle cx="1341.5" cy="121.5" r="1.5" fill="#E5E6E8"/>
<circle cx="1321.5" cy="141.5" r="1.5" fill="#E5E6E8"/>
<circle cx="1341.5" cy="141.5" r="1.5" fill="#E5E6E8"/>
<circle cx="1361.5" cy="81.5" r="1.5" fill="#E5E6E8"/>
<circle cx="1381.5" cy="81.5" r="1.5" fill="#E5E6E8"/>
<circle cx="1361.5" cy="101.5" r="1.5" fill="#E5E6E8"/>
<circle cx="1381.5" cy="101.5" r="1.5" fill="#E5E6E8"/>
<circle cx="1361.5" cy="121.5" r="1.5" fill="#E5E6E8"/>
<circle cx="1381.5" cy="121.5" r="1.5" fill="#E5E6E8"/>
<circle cx="1361.5" cy="141.5" r="1.5" fill="#E5E6E8"/>
<circle cx="1381.5" cy="141.5" r="1.5" fill="#E5E6E8"/>
<circle cx="1401.5" cy="81.5" r="1.5" fill="#E5E6E8"/>
<circle cx="1421.5" cy="81.5" r="1.5" fill="#E5E6E8"/>
<circle cx="1401.5" cy="101.5" r="1.5" fill="#E5E6E8"/>
<circle cx="1421.5" cy="101.5" r="1.5" fill="#E5E6E8"/>
<circle cx="1401.5" cy="121.5" r="1.5" fill="#E5E6E8"/>
<circle cx="1421.5" cy="121.5" r="1.5" fill="#E5E6E8"/>
<circle cx="1401.5" cy="141.5" r="1.5" fill="#E5E6E8"/>
<circle cx="1421.5" cy="141.5" r="1.5" fill="#E5E6E8"/>
<circle cx="1441.5" cy="81.5" r="1.5" fill="#E5E6E8"/>
<circle cx="1461.5" cy="81.5" r="1.5" fill="#E5E6E8"/>
<circle cx="1441.5" cy="101.5" r="1.5" fill="#E5E6E8"/>
<circle cx="1461.5" cy="101.5" r="1.5" fill="#E5E6E8"/>
<circle cx="1441.5" cy="121.5" r="1.5" fill="#E5E6E8"/>
<circle cx="1461.5" cy="121.5" r="1.5" fill="#E5E6E8"/>
<circle cx="1441.5" cy="141.5" r="1.5" fill="#E5E6E8"/>
<circle cx="1461.5" cy="141.5" r="1.5" fill="#E5E6E8"/>
<circle cx="1481.5" cy="81.5" r="1.5" fill="#E5E6E8"/>
<circle cx="1501.5" cy="81.5" r="1.5" fill="#E5E6E8"/>
<circle cx="1481.5" cy="101.5" r="1.5" fill="#E5E6E8"/>
<circle cx="1501.5" cy="101.5" r="1.5" fill="#E5E6E8"/>
<circle cx="1481.5" cy="121.5" r="1.5" fill="#E5E6E8"/>
<circle cx="1501.5" cy="121.5" r="1.5" fill="#E5E6E8"/>
<circle cx="1481.5" cy="141.5" r="1.5" fill="#E5E6E8"/>
<circle cx="1501.5" cy="141.5" r="1.5" fill="#E5E6E8"/>
<circle cx="1521.5" cy="81.5" r="1.5" fill="#E5E6E8"/>
<circle cx="1541.5" cy="81.5" r="1.5" fill="#E5E6E8"/>
<circle cx="1521.5" cy="101.5" r="1.5" fill="#E5E6E8"/>
<circle cx="1541.5" cy="101.5" r="1.5" fill="#E5E6E8"/>
<circle cx="1521.5" cy="121.5" r="1.5" fill="#E5E6E8"/>
<circle cx="1541.5" cy="121.5" r="1.5" fill="#E5E6E8"/>
<circle cx="1521.5" cy="141.5" r="1.5" fill="#E5E6E8"/>
<circle cx="1541.5" cy="141.5" r="1.5" fill="#E5E6E8"/>
<circle cx="1561.5" cy="81.5" r="1.5" fill="#E5E6E8"/>
<circle cx="1581.5" cy="81.5" r="1.5" fill="#E5E6E8"/>
<circle cx="1561.5" cy="101.5" r="1.5" fill="#E5E6E8"/>
<circle cx="1581.5" cy="101.5" r="1.5" fill="#E5E6E8"/>
<circle cx="1561.5" cy="121.5" r="1.5" fill="#E5E6E8"/>
<circle cx="1581.5" cy="121.5" r="1.5" fill="#E5E6E8"/>
<circle cx="1561.5" cy="141.5" r="1.5" fill="#E5E6E8"/>
<circle cx="1581.5" cy="141.5" r="1.5" fill="#E5E6E8"/>
<circle cx="1601.5" cy="81.5" r="1.5" fill="#E5E6E8"/>
<circle cx="1621.5" cy="81.5" r="1.5" fill="#E5E6E8"/>
<circle cx="1601.5" cy="101.5" r="1.5" fill="#E5E6E8"/>
<circle cx="1621.5" cy="101.5" r="1.5" fill="#E5E6E8"/>
<circle cx="1601.5" cy="121.5" r="1.5" fill="#E5E6E8"/>
<circle cx="1621.5" cy="121.5" r="1.5" fill="#E5E6E8"/>
<circle cx="1601.5" cy="141.5" r="1.5" fill="#E5E6E8"/>
<circle cx="1621.5" cy="141.5" r="1.5" fill="#E5E6E8"/>
<circle cx="1641.5" cy="81.5" r="1.5" fill="#E5E6E8"/>
<circle cx="1661.5" cy="81.5" r="1.5" fill="#E5E6E8"/>
<circle cx="1641.5" cy="101.5" r="1.5" fill="#E5E6E8"/>
<circle cx="1661.5" cy="101.5" r="1.5" fill="#E5E6E8"/>
<circle cx="1641.5" cy="121.5" r="1.5" fill="#E5E6E8"/>
<circle cx="1661.5" cy="121.5" r="1.5" fill="#E5E6E8"/>
<circle cx="1641.5" cy="141.5" r="1.5" fill="#E5E6E8"/>
<circle cx="1661.5" cy="141.5" r="1.5" fill="#E5E6E8"/>
<circle cx="1681.5" cy="81.5" r="1.5" fill="#E5E6E8"/>
<circle cx="1701.5" cy="81.5" r="1.5" fill="#E5E6E8"/>
<circle cx="1681.5" cy="101.5" r="1.5" fill="#E5E6E8"/>
<circle cx="1701.5" cy="101.5" r="1.5" fill="#E5E6E8"/>
<circle cx="1681.5" cy="121.5" r="1.5" fill="#E5E6E8"/>
<circle cx="1701.5" cy="121.5" r="1.5" fill="#E5E6E8"/>
<circle cx="1681.5" cy="141.5" r="1.5" fill="#E5E6E8"/>
<circle cx="1701.5" cy="141.5" r="1.5" fill="#E5E6E8"/>
<circle cx="1721.5" cy="81.5" r="1.5" fill="#E5E6E8"/>
<circle cx="1741.5" cy="81.5" r="1.5" fill="#E5E6E8"/>
<circle cx="1721.5" cy="101.5" r="1.5" fill="#E5E6E8"/>
<circle cx="1741.5" cy="101.5" r="1.5" fill="#E5E6E8"/>
<circle cx="1721.5" cy="121.5" r="1.5" fill="#E5E6E8"/>
<circle cx="1741.5" cy="121.5" r="1.5" fill="#E5E6E8"/>
<circle cx="1761.5" cy="81.5" r="1.5" fill="#E5E6E8"/>
<circle cx="1781.5" cy="81.5" r="1.5" fill="#E5E6E8"/>
<circle cx="1761.5" cy="101.5" r="1.5" fill="#E5E6E8"/>
<circle cx="1781.5" cy="101.5" r="1.5" fill="#E5E6E8"/>
<circle cx="21.5" cy="41.5" r="1.5" fill="#E5E6E8"/>
<circle cx="21.5" cy="61.5" r="1.5" fill="#E5E6E8"/>
<circle cx="1.5" cy="41.5" r="1.5" fill="#E5E6E8"/>
<circle cx="1.5" cy="61.5" r="1.5" fill="#E5E6E8"/>
<circle cx="41.5" cy="21.5" r="1.5" fill="#E5E6E8"/>
<circle cx="41.5" cy="41.5" r="1.5" fill="#E5E6E8"/>
<circle cx="41.5" cy="61.5" r="1.5" fill="#E5E6E8"/>
<circle cx="81.5" cy="1.5" r="1.5" fill="#E5E6E8"/>
<circle cx="61.5" cy="21.5" r="1.5" fill="#E5E6E8"/>
<circle cx="81.5" cy="21.5" r="1.5" fill="#E5E6E8"/>
<circle cx="61.5" cy="41.5" r="1.5" fill="#E5E6E8"/>
<circle cx="81.5" cy="41.5" r="1.5" fill="#E5E6E8"/>
<circle cx="61.5" cy="61.5" r="1.5" fill="#E5E6E8"/>
<circle cx="81.5" cy="61.5" r="1.5" fill="#E5E6E8"/>
<circle cx="101.5" cy="1.5" r="1.5" fill="#E5E6E8"/>
<circle cx="121.5" cy="1.5" r="1.5" fill="#E5E6E8"/>
<circle cx="101.5" cy="21.5" r="1.5" fill="#E5E6E8"/>
<circle cx="121.5" cy="21.5" r="1.5" fill="#E5E6E8"/>
<circle cx="101.5" cy="41.5" r="1.5" fill="#E5E6E8"/>
<circle cx="121.5" cy="41.5" r="1.5" fill="#E5E6E8"/>
<circle cx="101.5" cy="61.5" r="1.5" fill="#E5E6E8"/>
<circle cx="121.5" cy="61.5" r="1.5" fill="#E5E6E8"/>
<circle cx="141.5" cy="1.5" r="1.5" fill="#E5E6E8"/>
<circle cx="161.5" cy="1.5" r="1.5" fill="#E5E6E8"/>
<circle cx="141.5" cy="21.5" r="1.5" fill="#E5E6E8"/>
<circle cx="161.5" cy="21.5" r="1.5" fill="#E5E6E8"/>
<circle cx="141.5" cy="41.5" r="1.5" fill="#E5E6E8"/>
<circle cx="161.5" cy="41.5" r="1.5" fill="#E5E6E8"/>
<circle cx="141.5" cy="61.5" r="1.5" fill="#E5E6E8"/>
<circle cx="161.5" cy="61.5" r="1.5" fill="#E5E6E8"/>
<circle cx="181.5" cy="1.5" r="1.5" fill="#E5E6E8"/>
<circle cx="201.5" cy="1.5" r="1.5" fill="#E5E6E8"/>
<circle cx="181.5" cy="21.5" r="1.5" fill="#E5E6E8"/>
<circle cx="201.5" cy="21.5" r="1.5" fill="#E5E6E8"/>
<circle cx="181.5" cy="41.5" r="1.5" fill="#E5E6E8"/>
<circle cx="201.5" cy="41.5" r="1.5" fill="#E5E6E8"/>
<circle cx="181.5" cy="61.5" r="1.5" fill="#E5E6E8"/>
<circle cx="201.5" cy="61.5" r="1.5" fill="#E5E6E8"/>
<circle cx="221.5" cy="1.5" r="1.5" fill="#E5E6E8"/>
<circle cx="241.5" cy="1.5" r="1.5" fill="#E5E6E8"/>
<circle cx="221.5" cy="21.5" r="1.5" fill="#E5E6E8"/>
<circle cx="241.5" cy="21.5" r="1.5" fill="#E5E6E8"/>
<circle cx="221.5" cy="41.5" r="1.5" fill="#E5E6E8"/>
<circle cx="241.5" cy="41.5" r="1.5" fill="#E5E6E8"/>
<circle cx="221.5" cy="61.5" r="1.5" fill="#E5E6E8"/>
<circle cx="241.5" cy="61.5" r="1.5" fill="#E5E6E8"/>
<circle cx="261.5" cy="1.5" r="1.5" fill="#E5E6E8"/>
<circle cx="281.5" cy="1.5" r="1.5" fill="#E5E6E8"/>
<circle cx="261.5" cy="21.5" r="1.5" fill="#E5E6E8"/>
<circle cx="281.5" cy="21.5" r="1.5" fill="#E5E6E8"/>
<circle cx="261.5" cy="41.5" r="1.5" fill="#E5E6E8"/>
<circle cx="281.5" cy="41.5" r="1.5" fill="#E5E6E8"/>
<circle cx="261.5" cy="61.5" r="1.5" fill="#E5E6E8"/>
<circle cx="281.5" cy="61.5" r="1.5" fill="#E5E6E8"/>
<circle cx="301.5" cy="1.5" r="1.5" fill="#E5E6E8"/>
<circle cx="321.5" cy="1.5" r="1.5" fill="#E5E6E8"/>
<circle cx="301.5" cy="21.5" r="1.5" fill="#E5E6E8"/>
<circle cx="321.5" cy="21.5" r="1.5" fill="#E5E6E8"/>
<circle cx="301.5" cy="41.5" r="1.5" fill="#E5E6E8"/>
<circle cx="321.5" cy="41.5" r="1.5" fill="#E5E6E8"/>
<circle cx="301.5" cy="61.5" r="1.5" fill="#E5E6E8"/>
<circle cx="321.5" cy="61.5" r="1.5" fill="#E5E6E8"/>
<circle cx="341.5" cy="1.5" r="1.5" fill="#E5E6E8"/>
<circle cx="361.5" cy="1.5" r="1.5" fill="#E5E6E8"/>
<circle cx="341.5" cy="21.5" r="1.5" fill="#E5E6E8"/>
<circle cx="361.5" cy="21.5" r="1.5" fill="#E5E6E8"/>
<circle cx="341.5" cy="41.5" r="1.5" fill="#E5E6E8"/>
<circle cx="361.5" cy="41.5" r="1.5" fill="#E5E6E8"/>
<circle cx="341.5" cy="61.5" r="1.5" fill="#E5E6E8"/>
<circle cx="361.5" cy="61.5" r="1.5" fill="#E5E6E8"/>
<circle cx="381.5" cy="1.5" r="1.5" fill="#E5E6E8"/>
<circle cx="401.5" cy="1.5" r="1.5" fill="#E5E6E8"/>
<circle cx="381.5" cy="21.5" r="1.5" fill="#E5E6E8"/>
<circle cx="401.5" cy="21.5" r="1.5" fill="#E5E6E8"/>
<circle cx="381.5" cy="41.5" r="1.5" fill="#E5E6E8"/>
<circle cx="401.5" cy="41.5" r="1.5" fill="#E5E6E8"/>
<circle cx="381.5" cy="61.5" r="1.5" fill="#E5E6E8"/>
<circle cx="401.5" cy="61.5" r="1.5" fill="#E5E6E8"/>
<circle cx="421.5" cy="1.5" r="1.5" fill="#E5E6E8"/>
<circle cx="441.5" cy="1.5" r="1.5" fill="#E5E6E8"/>
<circle cx="421.5" cy="21.5" r="1.5" fill="#E5E6E8"/>
<circle cx="441.5" cy="21.5" r="1.5" fill="#E5E6E8"/>
<circle cx="421.5" cy="41.5" r="1.5" fill="#E5E6E8"/>
<circle cx="441.5" cy="41.5" r="1.5" fill="#E5E6E8"/>
<circle cx="421.5" cy="61.5" r="1.5" fill="#E5E6E8"/>
<circle cx="441.5" cy="61.5" r="1.5" fill="#E5E6E8"/>
<circle cx="461.5" cy="1.5" r="1.5" fill="#E5E6E8"/>
<circle cx="481.5" cy="1.5" r="1.5" fill="#E5E6E8"/>
<circle cx="461.5" cy="21.5" r="1.5" fill="#E5E6E8"/>
<circle cx="481.5" cy="21.5" r="1.5" fill="#E5E6E8"/>
<circle cx="461.5" cy="41.5" r="1.5" fill="#E5E6E8"/>
<circle cx="481.5" cy="41.5" r="1.5" fill="#E5E6E8"/>
<circle cx="461.5" cy="61.5" r="1.5" fill="#E5E6E8"/>
<circle cx="481.5" cy="61.5" r="1.5" fill="#E5E6E8"/>
<circle cx="501.5" cy="1.5" r="1.5" fill="#E5E6E8"/>
<circle cx="521.5" cy="1.5" r="1.5" fill="#E5E6E8"/>
<circle cx="501.5" cy="21.5" r="1.5" fill="#E5E6E8"/>
<circle cx="521.5" cy="21.5" r="1.5" fill="#E5E6E8"/>
<circle cx="501.5" cy="41.5" r="1.5" fill="#E5E6E8"/>
<circle cx="521.5" cy="41.5" r="1.5" fill="#E5E6E8"/>
<circle cx="501.5" cy="61.5" r="1.5" fill="#E5E6E8"/>
<circle cx="521.5" cy="61.5" r="1.5" fill="#E5E6E8"/>
<circle cx="541.5" cy="1.5" r="1.5" fill="#E5E6E8"/>
<circle cx="561.5" cy="1.5" r="1.5" fill="#E5E6E8"/>
<circle cx="541.5" cy="21.5" r="1.5" fill="#E5E6E8"/>
<circle cx="561.5" cy="21.5" r="1.5" fill="#E5E6E8"/>
<circle cx="541.5" cy="41.5" r="1.5" fill="#E5E6E8"/>
<circle cx="561.5" cy="41.5" r="1.5" fill="#E5E6E8"/>
<circle cx="541.5" cy="61.5" r="1.5" fill="#E5E6E8"/>
<circle cx="561.5" cy="61.5" r="1.5" fill="#E5E6E8"/>
<circle cx="581.5" cy="1.5" r="1.5" fill="#E5E6E8"/>
<circle cx="601.5" cy="1.5" r="1.5" fill="#E5E6E8"/>
<circle cx="581.5" cy="21.5" r="1.5" fill="#E5E6E8"/>
<circle cx="601.5" cy="21.5" r="1.5" fill="#E5E6E8"/>
<circle cx="581.5" cy="41.5" r="1.5" fill="#E5E6E8"/>
<circle cx="601.5" cy="41.5" r="1.5" fill="#E5E6E8"/>
<circle cx="581.5" cy="61.5" r="1.5" fill="#E5E6E8"/>
<circle cx="601.5" cy="61.5" r="1.5" fill="#E5E6E8"/>
<circle cx="621.5" cy="1.5" r="1.5" fill="#E5E6E8"/>
<circle cx="641.5" cy="1.5" r="1.5" fill="#E5E6E8"/>
<circle cx="621.5" cy="21.5" r="1.5" fill="#E5E6E8"/>
<circle cx="641.5" cy="21.5" r="1.5" fill="#E5E6E8"/>
<circle cx="621.5" cy="41.5" r="1.5" fill="#E5E6E8"/>
<circle cx="641.5" cy="41.5" r="1.5" fill="#E5E6E8"/>
<circle cx="621.5" cy="61.5" r="1.5" fill="#E5E6E8"/>
<circle cx="641.5" cy="61.5" r="1.5" fill="#E5E6E8"/>
<circle cx="661.5" cy="1.5" r="1.5" fill="#E5E6E8"/>
<circle cx="681.5" cy="1.5" r="1.5" fill="#E5E6E8"/>
<circle cx="661.5" cy="21.5" r="1.5" fill="#E5E6E8"/>
<circle cx="681.5" cy="21.5" r="1.5" fill="#E5E6E8"/>
<circle cx="661.5" cy="41.5" r="1.5" fill="#E5E6E8"/>
<circle cx="681.5" cy="41.5" r="1.5" fill="#E5E6E8"/>
<circle cx="661.5" cy="61.5" r="1.5" fill="#E5E6E8"/>
<circle cx="681.5" cy="61.5" r="1.5" fill="#E5E6E8"/>
<circle cx="701.5" cy="1.5" r="1.5" fill="#E5E6E8"/>
<circle cx="721.5" cy="1.5" r="1.5" fill="#E5E6E8"/>
<circle cx="701.5" cy="21.5" r="1.5" fill="#E5E6E8"/>
<circle cx="721.5" cy="21.5" r="1.5" fill="#E5E6E8"/>
<circle cx="701.5" cy="41.5" r="1.5" fill="#E5E6E8"/>
<circle cx="721.5" cy="41.5" r="1.5" fill="#E5E6E8"/>
<circle cx="701.5" cy="61.5" r="1.5" fill="#E5E6E8"/>
<circle cx="721.5" cy="61.5" r="1.5" fill="#E5E6E8"/>
<circle cx="741.5" cy="1.5" r="1.5" fill="#E5E6E8"/>
<circle cx="761.5" cy="1.5" r="1.5" fill="#E5E6E8"/>
<circle cx="741.5" cy="21.5" r="1.5" fill="#E5E6E8"/>
<circle cx="761.5" cy="21.5" r="1.5" fill="#E5E6E8"/>
<circle cx="741.5" cy="41.5" r="1.5" fill="#E5E6E8"/>
<circle cx="761.5" cy="41.5" r="1.5" fill="#E5E6E8"/>
<circle cx="741.5" cy="61.5" r="1.5" fill="#E5E6E8"/>
<circle cx="761.5" cy="61.5" r="1.5" fill="#E5E6E8"/>
<circle cx="781.5" cy="1.5" r="1.5" fill="#E5E6E8"/>
<circle cx="801.5" cy="1.5" r="1.5" fill="#E5E6E8"/>
<circle cx="781.5" cy="21.5" r="1.5" fill="#E5E6E8"/>
<circle cx="801.5" cy="21.5" r="1.5" fill="#E5E6E8"/>
<circle cx="781.5" cy="41.5" r="1.5" fill="#E5E6E8"/>
<circle cx="801.5" cy="41.5" r="1.5" fill="#E5E6E8"/>
<circle cx="781.5" cy="61.5" r="1.5" fill="#E5E6E8"/>
<circle cx="801.5" cy="61.5" r="1.5" fill="#E5E6E8"/>
<circle cx="821.5" cy="1.5" r="1.5" fill="#E5E6E8"/>
<circle cx="841.5" cy="1.5" r="1.5" fill="#E5E6E8"/>
<circle cx="821.5" cy="21.5" r="1.5" fill="#E5E6E8"/>
<circle cx="841.5" cy="21.5" r="1.5" fill="#E5E6E8"/>
<circle cx="821.5" cy="41.5" r="1.5" fill="#E5E6E8"/>
<circle cx="841.5" cy="41.5" r="1.5" fill="#E5E6E8"/>
<circle cx="821.5" cy="61.5" r="1.5" fill="#E5E6E8"/>
<circle cx="841.5" cy="61.5" r="1.5" fill="#E5E6E8"/>
<circle cx="861.5" cy="1.5" r="1.5" fill="#E5E6E8"/>
<circle cx="881.5" cy="1.5" r="1.5" fill="#E5E6E8"/>
<circle cx="861.5" cy="21.5" r="1.5" fill="#E5E6E8"/>
<circle cx="881.5" cy="21.5" r="1.5" fill="#E5E6E8"/>
<circle cx="861.5" cy="41.5" r="1.5" fill="#E5E6E8"/>
<circle cx="881.5" cy="41.5" r="1.5" fill="#E5E6E8"/>
<circle cx="861.5" cy="61.5" r="1.5" fill="#E5E6E8"/>
<circle cx="881.5" cy="61.5" r="1.5" fill="#E5E6E8"/>
<circle cx="901.5" cy="1.5" r="1.5" fill="#E5E6E8"/>
<circle cx="921.5" cy="1.5" r="1.5" fill="#E5E6E8"/>
<circle cx="901.5" cy="21.5" r="1.5" fill="#E5E6E8"/>
<circle cx="921.5" cy="21.5" r="1.5" fill="#E5E6E8"/>
<circle cx="901.5" cy="41.5" r="1.5" fill="#E5E6E8"/>
<circle cx="921.5" cy="41.5" r="1.5" fill="#E5E6E8"/>
<circle cx="901.5" cy="61.5" r="1.5" fill="#E5E6E8"/>
<circle cx="921.5" cy="61.5" r="1.5" fill="#E5E6E8"/>
<circle cx="941.5" cy="1.5" r="1.5" fill="#E5E6E8"/>
<circle cx="961.5" cy="1.5" r="1.5" fill="#E5E6E8"/>
<circle cx="941.5" cy="21.5" r="1.5" fill="#E5E6E8"/>
<circle cx="961.5" cy="21.5" r="1.5" fill="#E5E6E8"/>
<circle cx="941.5" cy="41.5" r="1.5" fill="#E5E6E8"/>
<circle cx="961.5" cy="41.5" r="1.5" fill="#E5E6E8"/>
<circle cx="941.5" cy="61.5" r="1.5" fill="#E5E6E8"/>
<circle cx="961.5" cy="61.5" r="1.5" fill="#E5E6E8"/>
<circle cx="981.5" cy="1.5" r="1.5" fill="#E5E6E8"/>
<circle cx="1001.5" cy="1.5" r="1.5" fill="#E5E6E8"/>
<circle cx="981.5" cy="21.5" r="1.5" fill="#E5E6E8"/>
<circle cx="1001.5" cy="21.5" r="1.5" fill="#E5E6E8"/>
<circle cx="981.5" cy="41.5" r="1.5" fill="#E5E6E8"/>
<circle cx="1001.5" cy="41.5" r="1.5" fill="#E5E6E8"/>
<circle cx="1001.5" cy="61.5" r="1.5" fill="#E5E6E8"/>
<circle cx="981.5" cy="61.5" r="1.5" fill="#E5E6E8"/>
<circle cx="1021.5" cy="1.5" r="1.5" fill="#E5E6E8"/>
<circle cx="1041.5" cy="1.5" r="1.5" fill="#E5E6E8"/>
<circle cx="1041.5" cy="21.5" r="1.5" fill="#E5E6E8"/>
<circle cx="1041.5" cy="41.5" r="1.5" fill="#E5E6E8"/>
<circle cx="1041.5" cy="61.5" r="1.5" fill="#E5E6E8"/>
<circle cx="1021.5" cy="21.5" r="1.5" fill="#E5E6E8"/>
<circle cx="1021.5" cy="41.5" r="1.5" fill="#E5E6E8"/>
<circle cx="1021.5" cy="61.5" r="1.5" fill="#E5E6E8"/>
<circle cx="1061.5" cy="1.5" r="1.5" fill="#E5E6E8"/>
<circle cx="1081.5" cy="1.5" r="1.5" fill="#E5E6E8"/>
<circle cx="1101.5" cy="1.5" r="1.5" fill="#E5E6E8"/>
<circle cx="1081.5" cy="21.5" r="1.5" fill="#E5E6E8"/>
<circle cx="1081.5" cy="41.5" r="1.5" fill="#E5E6E8"/>
<circle cx="1081.5" cy="61.5" r="1.5" fill="#E5E6E8"/>
<circle cx="1061.5" cy="21.5" r="1.5" fill="#E5E6E8"/>
<circle cx="1061.5" cy="41.5" r="1.5" fill="#E5E6E8"/>
<circle cx="1061.5" cy="61.5" r="1.5" fill="#E5E6E8"/>
<circle cx="1101.5" cy="21.5" r="1.5" fill="#E5E6E8"/>
<circle cx="1101.5" cy="41.5" r="1.5" fill="#E5E6E8"/>
<circle cx="1101.5" cy="61.5" r="1.5" fill="#E5E6E8"/>
<circle cx="1121.5" cy="1.5" r="1.5" fill="#E5E6E8"/>
<circle cx="1141.5" cy="1.5" r="1.5" fill="#E5E6E8"/>
<circle cx="1121.5" cy="21.5" r="1.5" fill="#E5E6E8"/>
<circle cx="1141.5" cy="21.5" r="1.5" fill="#E5E6E8"/>
<circle cx="1121.5" cy="41.5" r="1.5" fill="#E5E6E8"/>
<circle cx="1141.5" cy="41.5" r="1.5" fill="#E5E6E8"/>
<circle cx="1121.5" cy="61.5" r="1.5" fill="#E5E6E8"/>
<circle cx="1141.5" cy="61.5" r="1.5" fill="#E5E6E8"/>
<circle cx="1161.5" cy="1.5" r="1.5" fill="#E5E6E8"/>
<circle cx="1181.5" cy="1.5" r="1.5" fill="#E5E6E8"/>
<circle cx="1161.5" cy="21.5" r="1.5" fill="#E5E6E8"/>
<circle cx="1181.5" cy="21.5" r="1.5" fill="#E5E6E8"/>
<circle cx="1161.5" cy="41.5" r="1.5" fill="#E5E6E8"/>
<circle cx="1181.5" cy="41.5" r="1.5" fill="#E5E6E8"/>
<circle cx="1161.5" cy="61.5" r="1.5" fill="#E5E6E8"/>
<circle cx="1181.5" cy="61.5" r="1.5" fill="#E5E6E8"/>
<circle cx="1201.5" cy="1.5" r="1.5" fill="#E5E6E8"/>
<circle cx="1221.5" cy="1.5" r="1.5" fill="#E5E6E8"/>
<circle cx="1201.5" cy="21.5" r="1.5" fill="#E5E6E8"/>
<circle cx="1221.5" cy="21.5" r="1.5" fill="#E5E6E8"/>
<circle cx="1201.5" cy="41.5" r="1.5" fill="#E5E6E8"/>
<circle cx="1221.5" cy="41.5" r="1.5" fill="#E5E6E8"/>
<circle cx="1201.5" cy="61.5" r="1.5" fill="#E5E6E8"/>
<circle cx="1221.5" cy="61.5" r="1.5" fill="#E5E6E8"/>
<circle cx="1241.5" cy="1.5" r="1.5" fill="#E5E6E8"/>
<circle cx="1261.5" cy="1.5" r="1.5" fill="#E5E6E8"/>
<circle cx="1241.5" cy="21.5" r="1.5" fill="#E5E6E8"/>
<circle cx="1261.5" cy="21.5" r="1.5" fill="#E5E6E8"/>
<circle cx="1241.5" cy="41.5" r="1.5" fill="#E5E6E8"/>
<circle cx="1261.5" cy="41.5" r="1.5" fill="#E5E6E8"/>
<circle cx="1241.5" cy="61.5" r="1.5" fill="#E5E6E8"/>
<circle cx="1261.5" cy="61.5" r="1.5" fill="#E5E6E8"/>
<circle cx="1281.5" cy="1.5" r="1.5" fill="#E5E6E8"/>
<circle cx="1301.5" cy="1.5" r="1.5" fill="#E5E6E8"/>
<circle cx="1281.5" cy="21.5" r="1.5" fill="#E5E6E8"/>
<circle cx="1301.5" cy="21.5" r="1.5" fill="#E5E6E8"/>
<circle cx="1281.5" cy="41.5" r="1.5" fill="#E5E6E8"/>
<circle cx="1301.5" cy="41.5" r="1.5" fill="#E5E6E8"/>
<circle cx="1281.5" cy="61.5" r="1.5" fill="#E5E6E8"/>
<circle cx="1301.5" cy="61.5" r="1.5" fill="#E5E6E8"/>
<circle cx="1321.5" cy="1.5" r="1.5" fill="#E5E6E8"/>
<circle cx="1341.5" cy="1.5" r="1.5" fill="#E5E6E8"/>
<circle cx="1321.5" cy="21.5" r="1.5" fill="#E5E6E8"/>
<circle cx="1341.5" cy="21.5" r="1.5" fill="#E5E6E8"/>
<circle cx="1321.5" cy="41.5" r="1.5" fill="#E5E6E8"/>
<circle cx="1341.5" cy="41.5" r="1.5" fill="#E5E6E8"/>
<circle cx="1321.5" cy="61.5" r="1.5" fill="#E5E6E8"/>
<circle cx="1341.5" cy="61.5" r="1.5" fill="#E5E6E8"/>
<circle cx="1361.5" cy="1.5" r="1.5" fill="#E5E6E8"/>
<circle cx="1381.5" cy="1.5" r="1.5" fill="#E5E6E8"/>
<circle cx="1361.5" cy="21.5" r="1.5" fill="#E5E6E8"/>
<circle cx="1381.5" cy="21.5" r="1.5" fill="#E5E6E8"/>
<circle cx="1361.5" cy="41.5" r="1.5" fill="#E5E6E8"/>
<circle cx="1381.5" cy="41.5" r="1.5" fill="#E5E6E8"/>
<circle cx="1361.5" cy="61.5" r="1.5" fill="#E5E6E8"/>
<circle cx="1381.5" cy="61.5" r="1.5" fill="#E5E6E8"/>
<circle cx="1401.5" cy="1.5" r="1.5" fill="#E5E6E8"/>
<circle cx="1421.5" cy="1.5" r="1.5" fill="#E5E6E8"/>
<circle cx="1401.5" cy="21.5" r="1.5" fill="#E5E6E8"/>
<circle cx="1421.5" cy="21.5" r="1.5" fill="#E5E6E8"/>
<circle cx="1401.5" cy="41.5" r="1.5" fill="#E5E6E8"/>
<circle cx="1421.5" cy="41.5" r="1.5" fill="#E5E6E8"/>
<circle cx="1401.5" cy="61.5" r="1.5" fill="#E5E6E8"/>
<circle cx="1421.5" cy="61.5" r="1.5" fill="#E5E6E8"/>
<circle cx="1441.5" cy="1.5" r="1.5" fill="#E5E6E8"/>
<circle cx="1461.5" cy="1.5" r="1.5" fill="#E5E6E8"/>
<circle cx="1441.5" cy="21.5" r="1.5" fill="#E5E6E8"/>
<circle cx="1461.5" cy="21.5" r="1.5" fill="#E5E6E8"/>
<circle cx="1441.5" cy="41.5" r="1.5" fill="#E5E6E8"/>
<circle cx="1461.5" cy="41.5" r="1.5" fill="#E5E6E8"/>
<circle cx="1441.5" cy="61.5" r="1.5" fill="#E5E6E8"/>
<circle cx="1461.5" cy="61.5" r="1.5" fill="#E5E6E8"/>
<circle cx="1481.5" cy="1.5" r="1.5" fill="#E5E6E8"/>
<circle cx="1501.5" cy="1.5" r="1.5" fill="#E5E6E8"/>
<circle cx="1481.5" cy="21.5" r="1.5" fill="#E5E6E8"/>
<circle cx="1501.5" cy="21.5" r="1.5" fill="#E5E6E8"/>
<circle cx="1481.5" cy="41.5" r="1.5" fill="#E5E6E8"/>
<circle cx="1501.5" cy="41.5" r="1.5" fill="#E5E6E8"/>
<circle cx="1481.5" cy="61.5" r="1.5" fill="#E5E6E8"/>
<circle cx="1501.5" cy="61.5" r="1.5" fill="#E5E6E8"/>
<circle cx="1521.5" cy="1.5" r="1.5" fill="#E5E6E8"/>
<circle cx="1541.5" cy="1.5" r="1.5" fill="#E5E6E8"/>
<circle cx="1521.5" cy="21.5" r="1.5" fill="#E5E6E8"/>
<circle cx="1541.5" cy="21.5" r="1.5" fill="#E5E6E8"/>
<circle cx="1521.5" cy="41.5" r="1.5" fill="#E5E6E8"/>
<circle cx="1541.5" cy="41.5" r="1.5" fill="#E5E6E8"/>
<circle cx="1521.5" cy="61.5" r="1.5" fill="#E5E6E8"/>
<circle cx="1541.5" cy="61.5" r="1.5" fill="#E5E6E8"/>
<circle cx="1561.5" cy="1.5" r="1.5" fill="#E5E6E8"/>
<circle cx="1581.5" cy="1.5" r="1.5" fill="#E5E6E8"/>
<circle cx="1561.5" cy="21.5" r="1.5" fill="#E5E6E8"/>
<circle cx="1581.5" cy="21.5" r="1.5" fill="#E5E6E8"/>
<circle cx="1561.5" cy="41.5" r="1.5" fill="#E5E6E8"/>
<circle cx="1581.5" cy="41.5" r="1.5" fill="#E5E6E8"/>
<circle cx="1561.5" cy="61.5" r="1.5" fill="#E5E6E8"/>
<circle cx="1581.5" cy="61.5" r="1.5" fill="#E5E6E8"/>
<circle cx="1601.5" cy="1.5" r="1.5" fill="#E5E6E8"/>
<circle cx="1621.5" cy="1.5" r="1.5" fill="#E5E6E8"/>
<circle cx="1601.5" cy="21.5" r="1.5" fill="#E5E6E8"/>
<circle cx="1621.5" cy="21.5" r="1.5" fill="#E5E6E8"/>
<circle cx="1601.5" cy="41.5" r="1.5" fill="#E5E6E8"/>
<circle cx="1621.5" cy="41.5" r="1.5" fill="#E5E6E8"/>
<circle cx="1601.5" cy="61.5" r="1.5" fill="#E5E6E8"/>
<circle cx="1621.5" cy="61.5" r="1.5" fill="#E5E6E8"/>
<circle cx="1641.5" cy="1.5" r="1.5" fill="#E5E6E8"/>
<circle cx="1661.5" cy="1.5" r="1.5" fill="#E5E6E8"/>
<circle cx="1641.5" cy="21.5" r="1.5" fill="#E5E6E8"/>
<circle cx="1661.5" cy="21.5" r="1.5" fill="#E5E6E8"/>
<circle cx="1641.5" cy="41.5" r="1.5" fill="#E5E6E8"/>
<circle cx="1661.5" cy="41.5" r="1.5" fill="#E5E6E8"/>
<circle cx="1641.5" cy="61.5" r="1.5" fill="#E5E6E8"/>
<circle cx="1661.5" cy="61.5" r="1.5" fill="#E5E6E8"/>
<circle cx="1681.5" cy="1.5" r="1.5" fill="#E5E6E8"/>
<circle cx="1701.5" cy="1.5" r="1.5" fill="#E5E6E8"/>
<circle cx="1681.5" cy="21.5" r="1.5" fill="#E5E6E8"/>
<circle cx="1701.5" cy="21.5" r="1.5" fill="#E5E6E8"/>
<circle cx="1681.5" cy="41.5" r="1.5" fill="#E5E6E8"/>
<circle cx="1701.5" cy="41.5" r="1.5" fill="#E5E6E8"/>
<circle cx="1681.5" cy="61.5" r="1.5" fill="#E5E6E8"/>
<circle cx="1701.5" cy="61.5" r="1.5" fill="#E5E6E8"/>
<circle cx="1721.5" cy="21.5" r="1.5" fill="#E5E6E8"/>
<circle cx="1741.5" cy="21.5" r="1.5" fill="#E5E6E8"/>
<circle cx="1721.5" cy="41.5" r="1.5" fill="#E5E6E8"/>
<circle cx="1741.5" cy="41.5" r="1.5" fill="#E5E6E8"/>
<circle cx="1721.5" cy="61.5" r="1.5" fill="#E5E6E8"/>
<circle cx="1741.5" cy="61.5" r="1.5" fill="#E5E6E8"/>
<circle cx="1761.5" cy="41.5" r="1.5" fill="#E5E6E8"/>
<circle cx="1781.5" cy="41.5" r="1.5" fill="#E5E6E8"/>
<circle cx="1761.5" cy="61.5" r="1.5" fill="#E5E6E8"/>
<circle cx="1781.5" cy="61.5" r="1.5" fill="#E5E6E8"/>
</svg>
