<?xml version="1.0" encoding="UTF-8"?>
<svg id="Layer_1" data-name="Layer 1" xmlns="http://www.w3.org/2000/svg" viewBox="0 0 450.09 79.83">
  <defs>
    <style>
      .cls-1 {
        fill: #fff;
      }
    </style>
  </defs>
  <path class="cls-1" d="M49.8,14.8h19.64v50.29h-22.07l-27.01-30.72v30.72H.75V14.8H27.72l22.07,26.64V14.8Z"/>
  <path class="cls-1" d="M80.84,14.88h61.32v15.94h-41.72v6.14h36.82v14.7h-36.82v13.51h-19.61V14.88Z"/>
  <path class="cls-1" d="M172.53,65.16V30.82h-23.31V14.88h66.22v15.94h-23.31v34.35h-19.6Z"/>
  <path class="cls-1" d="M221.98,14.88h58.85v12.87h-39.25v6.44h39.25v11.64h-39.25v6.44h39.25v12.91h-58.85V14.88Z"/>
  <path class="cls-1" d="M309.29,14.88h23.31l26.98,50.29h-22.08l-3.97-8.61h-25.18l-3.97,8.61h-22.08l26.98-50.29Zm4.75,29.41h13.81l-6.88-14.85-6.92,14.85Z"/>
  <path class="cls-1" d="M361.06,14.8h24.54l19.61,25.14,19.64-25.14h24.51v50.29h-19.61v-26.83l-19.64,26.83h-9.8l-19.64-26.83v26.83h-19.61V14.8Z"/>
</svg>